G75*
G70*
%OFA0B0*%
%FSLAX24Y24*%
%IPPOS*%
%LPD*%
%AMOC8*
5,1,8,0,0,1.08239X$1,22.5*
%
%ADD10R,0.0966X0.0966*%
%ADD11C,0.0710*%
%ADD12C,0.0434*%
%ADD13OC8,0.0820*%
%ADD14C,0.0820*%
%ADD15C,0.0792*%
%ADD16C,0.0720*%
%ADD17R,0.0867X0.0474*%
%ADD18C,0.1380*%
D10*
X008964Y021645D03*
X008964Y024763D03*
D11*
X002979Y026156D03*
X002979Y020251D03*
D12*
X003964Y009570D03*
X003964Y007838D03*
D13*
X006964Y002704D03*
X007964Y002704D03*
X008964Y002704D03*
X009964Y002704D03*
X010964Y002704D03*
X010964Y001704D03*
X009964Y001704D03*
X008964Y001704D03*
X007964Y001704D03*
X006964Y001704D03*
D14*
X006934Y028014D03*
X006934Y029794D03*
X009494Y029794D03*
X009494Y028014D03*
D15*
X014964Y027204D03*
X015964Y027204D03*
X016964Y027204D03*
X017964Y027204D03*
X018964Y027204D03*
X019964Y027204D03*
X020964Y027204D03*
X021964Y027204D03*
X021964Y026204D03*
X020964Y026204D03*
X019964Y026204D03*
X018964Y026204D03*
X017964Y026204D03*
X016964Y026204D03*
X015964Y026204D03*
X014964Y026204D03*
X026964Y026204D03*
X027964Y026204D03*
X028964Y026204D03*
X029964Y026204D03*
X030964Y026204D03*
X031964Y026204D03*
X032964Y026204D03*
X033964Y026204D03*
X033964Y027204D03*
X032964Y027204D03*
X031964Y027204D03*
X030964Y027204D03*
X029964Y027204D03*
X028964Y027204D03*
X027964Y027204D03*
X026964Y027204D03*
X032464Y019204D03*
X033464Y019204D03*
X033464Y018204D03*
X032464Y018204D03*
X032464Y017204D03*
X033464Y017204D03*
X033464Y016204D03*
X032464Y016204D03*
X032464Y015204D03*
X033464Y015204D03*
X033464Y014204D03*
X032464Y014204D03*
X032464Y013204D03*
X033464Y013204D03*
X033464Y012204D03*
X032464Y012204D03*
X032964Y005204D03*
X033964Y005204D03*
X033964Y004204D03*
X032964Y004204D03*
X031964Y004204D03*
X030964Y004204D03*
X030964Y005204D03*
X031964Y005204D03*
X029964Y005204D03*
X029964Y004204D03*
X028964Y004204D03*
X027964Y004204D03*
X027964Y005204D03*
X028964Y005204D03*
X026964Y005204D03*
X026964Y004204D03*
X021964Y004204D03*
X021964Y005204D03*
X020964Y005204D03*
X020964Y004204D03*
X019964Y004204D03*
X019964Y005204D03*
X018964Y005204D03*
X018964Y004204D03*
X017964Y004204D03*
X016964Y004204D03*
X016964Y005204D03*
X017964Y005204D03*
X015964Y005204D03*
X015964Y004204D03*
X014964Y004204D03*
X014964Y005204D03*
D16*
X008964Y004704D03*
X007964Y004704D03*
X006964Y004704D03*
X005964Y004704D03*
X004964Y004704D03*
X003964Y004704D03*
X003964Y012704D03*
X004964Y012704D03*
X005964Y012704D03*
X006964Y012704D03*
X007964Y012704D03*
X008964Y012704D03*
D17*
X012324Y013204D03*
X012324Y014204D03*
X012324Y015204D03*
X012324Y016204D03*
X012324Y017204D03*
X012324Y018204D03*
X014604Y018204D03*
X014604Y017204D03*
X014604Y016204D03*
X014604Y015204D03*
X014604Y014204D03*
X014604Y013204D03*
X028324Y013204D03*
X028324Y014204D03*
X028324Y015204D03*
X028324Y016204D03*
X028324Y017204D03*
X028324Y018204D03*
X030604Y018204D03*
X030604Y017204D03*
X030604Y016204D03*
X030604Y015204D03*
X030604Y014204D03*
X030604Y013204D03*
D18*
X003464Y002204D03*
X033964Y008204D03*
X033964Y023204D03*
X003464Y029204D03*
M02*
