%
M48
M72
T01C0.0200
T02C0.0354
T03C0.0400
T04C0.0472
T05C0.0591
T06C0.0630
T07C0.1300
%
T01
X7964Y3754
X10964Y6454
X12314Y5354
X15214Y7954
X15714Y8204
X16214Y7954
X15464Y7454
X16414Y6454
X15464Y6204
X17464Y6704
X17714Y7704
X18214Y7704
X18214Y8704
X17714Y8704
X17714Y9704
X18214Y9704
X19614Y10254
X20014Y9954
X20464Y9704
X20964Y9704
X20964Y9204
X20464Y8804
X20914Y8504
X22464Y8404
X22464Y8904
X22764Y9304
X22464Y9704
X23464Y9904
X23664Y9454
X24164Y9254
X24664Y9054
X25964Y10304
X26314Y10654
X25414Y11054
X24564Y11604
X25314Y12354
X24914Y12654
X25414Y12854
X25814Y13654
X25514Y14504
X24914Y15454
X25264Y15804
X25764Y15854
X26214Y16604
X25814Y16954
X26164Y17304
X26664Y17154
X27164Y17104
X27614Y17304
X27514Y18204
X25814Y17954
X25464Y17604
X24764Y17554
X24414Y16904
X24914Y16804
X23964Y17704
X22964Y17504
X22564Y17054
X21914Y18204
X21414Y18054
X21764Y18904
X22264Y18904
X22764Y19054
X23264Y19054
X24614Y18854
X25414Y20554
X24914Y21654
X25414Y21754
X24964Y22154
X25414Y22454
X23464Y21054
X22964Y20854
X22214Y20854
X21714Y20854
X21914Y20404
X22364Y21554
X22364Y22054
X22464Y22554
X22364Y23054
X21214Y22954
X21214Y23454
X20964Y23954
X20214Y23454
X20714Y23204
X21214Y22454
X21214Y21954
X20714Y22204
X18714Y22704
X18214Y22704
X18214Y23704
X18714Y23704
X19714Y24954
X19714Y25454
X18964Y25454
X18464Y25454
X17214Y24704
X16714Y24454
X16214Y24704
X16214Y24204
X16214Y23704
X16714Y23354
X16264Y23004
X18214Y21704
X18714Y21704
X16964Y20454
X16714Y20954
X16464Y20454
X15964Y20454
X15964Y20954
X15214Y21204
X14814Y20154
X15364Y19954
X15364Y18954
X14864Y18954
X13964Y18204
X13364Y19004
X13464Y19504
X13464Y20054
X12964Y18204
X12964Y17204
X13964Y17204
X13964Y16204
X13964Y15204
X13964Y14204
X13964Y13204
X12964Y13204
X13064Y12304
X12214Y12254
X12214Y11354
X11664Y11154
X10614Y12354
X10614Y13254
X12964Y14204
X12964Y15204
X12964Y16204
X15764Y15104
X15964Y15554
X15964Y14404
X16164Y13604
X16164Y13104
X16064Y12604
X17264Y12954
X17864Y12404
X17614Y11954
X17264Y11554
X16364Y10454
X15964Y10104
X15464Y10104
X14964Y10104
X19214Y6704
X19964Y7004
X20464Y7004
X20964Y7004
X24464Y6454
X26864Y9154
X28514Y9654
X28814Y10354
X29464Y9704
X29414Y8804
X29464Y8004
X28464Y8454
X28214Y7354
X29464Y6254
X31014Y6304
X31464Y6704
X32214Y6454
X32464Y7204
X31964Y7704
X32414Y8504
X32564Y9004
X33014Y9204
X33164Y10304
X32664Y10304
X32164Y10304
X31664Y10304
X31264Y10654
X30714Y10104
X30414Y11104
X29764Y11704
X29064Y11704
X28764Y12454
X29264Y13254
X29964Y13204
X29814Y14404
X29664Y15504
X29964Y16204
X29014Y16204
X29964Y17204
X29814Y18204
X27614Y16154
X26414Y15204
X28214Y14704
X27614Y12254
X26564Y11404
X27964Y11204
X31564Y13854
X31264Y15904
X28464Y20704
X28464Y21204
X29364Y21554
X29964Y21204
X30464Y21404
X30214Y22204
X29714Y22204
X29714Y23204
X30214Y23204
X30214Y24204
X29714Y24204
X27964Y22704
X27514Y22454
X28014Y22204
X27564Y21954
X24464Y24954
X20464Y25704
X24464Y29704
X32264Y22354
X32564Y21904
X33064Y21904
X32814Y22404
X34714Y24454
X35964Y26954
X23764Y15804
X22814Y15254
X22114Y15354
X21514Y15004
X21814Y14604
X22114Y14204
X22814Y13754
X23564Y13154
X23764Y13604
X24264Y13704
X23814Y14304
X22064Y15854
X20564Y17104
X19764Y15804
X19764Y15254
X19814Y14754
X19764Y14254
X19064Y13904
X19964Y13454
X20714Y13304
X21564Y12204
X21564Y11354
X21214Y10954
X20514Y10804
X20964Y10204
X22264Y11404
X22864Y12504
X19064Y15204
X17714Y16454
X17264Y16704
X17564Y17304
X16814Y18054
X16564Y16704
X11264Y19504
X11264Y20054
X11014Y19054
X9464Y16804
X7814Y14304
X6464Y15204
X4964Y14204
X7964Y10704
X9964Y10704
X9464Y8954
X8714Y8204
X8964Y6704
X5464Y7704
X6714Y18204
X6714Y18704
X12464Y24204
X13464Y24204
X31864Y9004
X30714Y8004
X34314Y10454
X34714Y9804
X34714Y6454
X24464Y1704
T02
X3964Y7838
X3964Y9570
T03
X3964Y12704
X4964Y12704
X5964Y12704
X6964Y12704
X7964Y12704
X8964Y12704
X8964Y4704
X7964Y4704
X6964Y4704
X5964Y4704
X4964Y4704
X3964Y4704
X6964Y2704
X7964Y2704
X8964Y2704
X9964Y2704
X10964Y2704
X10964Y1704
X9964Y1704
X8964Y1704
X7964Y1704
X6964Y1704
X6934Y28014
X6934Y29794
X9494Y29794
X9494Y28014
T04
X14964Y27204
X15964Y27204
X16964Y27204
X17964Y27204
X18964Y27204
X19964Y27204
X20964Y27204
X21964Y27204
X21964Y26204
X20964Y26204
X19964Y26204
X18964Y26204
X17964Y26204
X16964Y26204
X15964Y26204
X14964Y26204
X26964Y26204
X27964Y26204
X28964Y26204
X29964Y26204
X30964Y26204
X31964Y26204
X32964Y26204
X33964Y26204
X33964Y27204
X32964Y27204
X31964Y27204
X30964Y27204
X29964Y27204
X28964Y27204
X27964Y27204
X26964Y27204
X32464Y19204
X33464Y19204
X33464Y18204
X32464Y18204
X32464Y17204
X33464Y17204
X33464Y16204
X32464Y16204
X32464Y15204
X33464Y15204
X33464Y14204
X32464Y14204
X32464Y13204
X33464Y13204
X33464Y12204
X32464Y12204
X32964Y5204
X33964Y5204
X33964Y4204
X32964Y4204
X31964Y4204
X30964Y4204
X30964Y5204
X31964Y5204
X29964Y5204
X29964Y4204
X28964Y4204
X27964Y4204
X27964Y5204
X28964Y5204
X26964Y5204
X26964Y4204
X21964Y4204
X21964Y5204
X20964Y5204
X20964Y4204
X19964Y4204
X19964Y5204
X18964Y5204
X18964Y4204
X17964Y4204
X16964Y4204
X16964Y5204
X17964Y5204
X15964Y5204
X15964Y4204
X14964Y4204
X14964Y5204
T05
X8964Y21645
X8964Y24763
T06
X2979Y26156
X2979Y20251
T07
X3464Y2204
X33964Y8204
X33964Y23204
X3464Y29204
M30
